<svg t="1640160311126" class="icon" viewBox="0 0 1024 1024" version="1.1" xmlns="http://www.w3.org/2000/svg" p-id="2748" width="256" height="256"><path d="M512 0l362.039439 149.960561L1024 512l-149.960561 362.039439L512 1024 149.960561 874.039439 0 512 149.960561 149.960561 512 0z m3.261146 120.66242L236.237452 236.237452 120.66242 515.261146l115.575032 279.023695L515.261146 909.859873l279.023695-115.575032L909.859873 515.261146l-115.575032-279.023694L515.261146 120.66242z" fill="#FFFFFF" p-id="2749"></path><path d="M512 22.828025l345.896764 143.275211L1001.171975 512l-143.275211 345.896764L512 1001.171975 166.103236 857.896764 22.828025 512 166.103236 166.103236 512 22.828025z m-8.152866 91.312102L216.752102 233.057834 97.834395 520.152866l118.917707 287.095032L503.847134 926.165605l287.095032-118.917707L909.859873 520.152866l-118.917707-287.095032L503.847134 114.140127z" fill="#64E4EC" p-id="2750"></path><path d="M510.369427 68.484076l314.76586 130.380637L955.515924 513.630573l-130.380637 314.76586L510.369427 958.77707l-314.76586-130.380637L65.22293 513.630573l130.380637-314.76586L510.369427 68.484076z m1.630573 55.439491L235.281936 238.543083 120.66242 515.261146l114.619516 276.718064L512 906.598726l276.718064-114.619516L903.33758 515.261146l-114.619516-276.718063L512 123.923567z" fill="#B8F4F4" p-id="2751"></path><path d="M705.712102 760.134115l42.368815-43.875465a3.261146 3.261146 0 0 1 4.611261-0.081529l181.482803 175.254013a3.261146 3.261146 0 0 1 0.078267 4.614522l-42.368815 43.875465a3.261146 3.261146 0 0 1-4.611261 0.081529l-181.482803-175.257274a3.261146 3.261146 0 0 1-0.081528-4.611261z" fill="#64E4EC" p-id="2752"></path></svg>